<svg width="51" height="51" viewBox="0 0 51 51" fill="none" xmlns="http://www.w3.org/2000/svg">
<path d="M36.6789 19.7249V33.837H32.5329V19.7249H36.6789ZM32.2988 15.7839C32.2988 14.6828 33.232 13.8424 34.6029 13.8424C36.0102 13.8424 36.8795 14.6828 36.913 15.7839C36.913 16.8561 36.0072 17.6964 34.5725 17.6964C33.2016 17.6964 32.2988 16.8561 32.2988 15.7839Z" fill="#392347"/>
<path fill-rule="evenodd" clip-rule="evenodd" d="M26.9884 33.837L25.2451 28.1709H19.1293L17.4718 33.837H13.8423L20.0152 13.8424H24.5021L30.7608 33.837H26.9884ZM21.187 20.4875L19.7009 25.412H24.645L23.1303 20.4875C22.8289 19.5031 22.5665 18.4217 22.3249 17.4319L22.1586 16.7496H22.1015C22.0045 17.1488 21.9058 17.5668 21.8053 18.0037C21.613 18.8397 21.413 19.7081 21.187 20.4875Z" fill="#392347"/>
<path fill-rule="evenodd" clip-rule="evenodd" d="M39.5108 0.78001C30.1175 -0.260003 20.6379 -0.260003 11.2447 0.78001C5.83659 1.38377 1.46873 5.63692 0.834381 11.0627C-0.278127 20.5743 -0.278127 30.1828 0.834381 39.6944C1.46873 45.1202 5.8339 49.3733 11.2447 49.9771C20.638 51.0149 30.1174 51.0149 39.5108 49.9771C44.9188 49.3733 49.2867 45.1202 49.9211 39.6944C51.0336 30.1828 51.0336 20.5743 49.9211 11.0627C49.2867 5.63692 44.9215 1.38377 39.5108 0.78001ZM11.6909 4.77824C20.7876 3.77119 29.9679 3.77119 39.0646 4.77824C42.6395 5.18075 45.5021 7.99562 45.9188 11.5323C46.997 20.7317 46.997 30.0253 45.9188 39.2248C45.7033 40.9557 44.9096 42.5635 43.6659 43.7885C42.4222 45.0136 40.8011 45.7843 39.0646 45.9762C29.9679 46.9832 20.7876 46.9832 11.6909 45.9762C9.95431 45.7843 8.33326 45.0136 7.08957 43.7885C5.84588 42.5635 5.05218 40.9557 4.83668 39.2248C3.75845 30.0253 3.75845 20.7317 4.83668 11.5323C5.05218 9.80142 5.84588 8.19359 7.08957 6.96855C8.33326 5.74352 9.95431 4.97013 11.6909 4.77824Z" fill="#392347"/>
</svg>
